# AST/ASF file generated using VICON BodyLanguage
# -----------------------------------------------
:version 1.10
:name VICON
:units
  mass 1.0
  length 0.45
  angle deg
:documentation
   .ast/.asf automatically generated from VICON data using
   VICON BodyBuilder and BodyLanguage model FoxedUp or BRILLIANT.MOD
:root
   order TX TY TZ RX RY RZ
   axis XYZ
   position 0 0 0  
   orientation 0 0 0 
:bonedata
  begin
     id 1 
     name lhipjoint
     direction 0.528046 -0.759594 0.379717 
     length 2.39752 
     axis 0 0 0  XYZ
  end
  begin
     id 2 
     name lfemur
     direction 0.34202 -0.939693 0  
     length 7.31175  
     axis 0 0 20  XYZ
    dof rx ry rz
    limits (-160.0 20.0)
           (-70.0 70.0)
           (-60.0 70.0)
  end
  begin
     id 3 
     name ltibia
     direction 0.34202 -0.939693 0   
     length 7.52482   
     axis 0 0 20   XYZ
    dof rx
    limits (-10.0 170.0)
  end
  begin
     id 4 
     name lfoot
     direction 0.0675379 -0.185559 0.980309   
     length 2.00961   
     axis -90 7.62852e-016 20   XYZ
    dof rx rz
    limits (-45.0 90.0)
           (-70.0 20.0)
  end
  begin
     id 5 
     name ltoes
     direction 1.5352e-011 -4.22286e-011 1   
     length 1.01383   
     axis -90 7.62852e-016 20   XYZ
    dof rx
    limits (-90.0 20.0)
  end
  begin
     id 6 
     name rhipjoint
     direction -0.510274 -0.769251 0.384544   
     length 2.36742  
     axis 0 0 0  XYZ 
  end
  begin
     id 7 
     name rfemur
     direction -0.34202 -0.939693 0   
     length 7.45325   
     axis 0 0 -20   XYZ
    dof rx ry rz
    limits (-160.0 20.0)
           (-70.0 70.0)
           (-70.0 60.0)
  end
  begin
     id 8 
     name rtibia
     direction -0.34202 -0.939693 0   
     length 7.49587   
     axis 0 0 -20   XYZ
    dof rx
    limits (-10.0 170.0)
 end
 begin
     id 9 
     name rfoot
     direction -0.106475 -0.292536 0.950308   
     length 2.20898  
     axis -90 -7.62852e-016 -20   XYZ
    dof rx rz
    limits (-45.0 90.0)
           (-20.0 70.0)
  end
  begin
     id 10 
     name rtoes
     direction -1.53597e-011 -4.22023e-011 1   
     length 1.10065   
     axis -90 -7.62852e-016 -20   XYZ
    dof rx
    limits (-90.0 20.0)
  end
  begin
     id 11 
     name lowerback
     direction 0.0260024 0.998026 -0.0571652   
     length 2.11214   
     axis 0 0 0   XYZ
    dof rx ry rz
    limits (-20.0 45.0)
           (-30.0 30.0)
           (-30.0 30.0)
  end
  begin
     id 12 
     name upperback
     direction 0.0216202 0.999542 -0.0211766   
     length 2.11689   
     axis 0 0 0   XYZ
    dof rx ry rz
    limits (-20.0 45.0)
           (-30.0 30.0)
           (-30.0 30.0)
  end
  begin
     id 13 
     name thorax
     direction 0.00883312 0.999944 0.00589057   
     length 2.11821   
     axis 0 0 0   XYZ
    dof rx ry rz
    limits (-20.0 45.0)
           (-30.0 30.0)
           (-30.0 30.0)
  end
  begin
     id 14 
     name lowerneck
     direction -0.059386 0.994433 0.0870401   
     length 1.81176   
     axis 0 0 0   XYZ
    dof rx ry rz
    limits (-20.0 45.0)
           (-30.0 30.0)
           (-30.0 30.0)
  end
  begin
     id 15 
     name upperneck
     direction 0.0506457 0.97328 -0.223967   
     length 1.82382   
     axis 0 0 0   XYZ
    dof rx ry rz
    limits (-20.0 45.0)
           (-30.0 30.0)
           (-30.0 30.0)
  end
  begin
     id 16
     name head
     direction 0.0205902 0.996147 -0.0852487  
     length 1.84805  
     axis 0 0 0   XYZ
    dof rx ry rz
    limits (-20.0 45.0)
           (-30.0 30.0)
           (-30.0 30.0)
  end
  begin
     id 17 
     name lclavicle
     direction 0.949493 0.303881 -0.0782325  
     length 3.60584  
     axis 0 0 0   XYZ
    dof ry rz
    limits (-20.0 10.0)
           (0.0 20.0)
  end
  begin
     id 18 
     name lhumerus
     direction 1 -4.48965e-011 1.48782e-027   
     length 4.95681   
     axis 180 -30 -90   XYZ
    dof rx ry rz
    limits (-60.0 90.0)
           (-90.0 90.0)
           (-90.0 90.0)
  end
  begin
     id 19
     name lradius
     direction 1 -4.48952e-011 2.06528e-027   
     length 3.40915   
     axis 180 -30 -90   XYZ
    dof rx
    limits (-10.0 170.0)
  end
  begin
     id 20
     name lwrist
     direction 1 -4.48964e-011 1.28021e-027   
     length 1.70457   
     axis -1.61767e-015 90 90   XYZ
    dof ry
    limits (-180.0 0.0)
 end
  begin
     id 21 
     name lhand
     direction 1 -4.49094e-011 2.54887e-027   
     length 0.616403   
     axis -1.63363e-015 90 90   XYZ
    dof rx rz
    limits (-90.0 90.0)
           (-45.0 45.0)
  end
  begin
     id 22 
     name lfingers
     direction 1 -4.49002e-011 5.11407e-027   
     length 0.49696   
     axis -3.26723e-015 90 90   XYZ
    dof rx
    limits (0.0 90.0)
  end
  begin
     id 23
     name lthumb
     direction 0.707107 -6.34998e-011 0.707107   
     length 0.713539   
     axis -90 45 -2.25915e-014   XYZ
    dof rx rz
    limits (-45.0 45.0)
           (-45.0 45.0)
  end
  begin
     id 24 
     name rclavicle
     direction -0.937751 0.334612 -0.0930482   
     length 3.46287  
     axis 0 0 0   XYZ 
    dof ry rz
    limits (-10.0 20.0)
           (-20.0 0.0)
  end
  begin
     id 25 
     name rhumerus
     direction -1 -4.48962e-011 3.59972e-027  
     length 5.352   
     axis 180 30 90   XYZ
    dof rx ry rz
    limits (-90.0 60.0)
           (-90.0 90.0)
           (-90.0 90.0)
  end
  begin
     id 26 
     name rradius
     direction -1 -4.48987e-011 -3.76925e-027   
     length 3.43721   
     axis 180 30 90   XYZ
    dof rx
    limits (-10.0 170.0)
  end
  begin
     id 27 
     name rwrist
     direction -1 -4.48943e-011 1.28112e-027   
     length 1.7186   
     axis -1.61767e-015 -90 -90   XYZ
    dof ry
    limits (-180.0 0.0)
  end
  begin
     id 28
     name rhand
     direction -1 -4.49027e-011 2.55483e-027   
     length 0.72009   
     axis -1.63363e-015 -90 -90   XYZ
    dof rx rz
    limits (-90.0 90.0)
           (-45.0 45.0)
  end
  begin
     id 29
     name rfingers
     direction -1 -4.48827e-011 5.14506e-027   
     length 0.580555   
     axis -3.26723e-015 -90 -90   XYZ
    dof rx
    limits (0.0 90.0)
  end
  begin
     id 30
     name rthumb
     direction -0.707107 -6.34936e-011 0.707107   
     length 0.833564   
     axis -90 -45 2.25915e-014   XYZ
    dof rx rz
    limits (-45.0 45.0)
           (-45.0 45.0)
  end
:hierarchy
  begin
    root lhipjoint rhipjoint lowerback
    lhipjoint lfemur
    lfemur ltibia
    ltibia lfoot
    lfoot ltoes
    rhipjoint rfemur
    rfemur rtibia
    rtibia rfoot
    rfoot rtoes
    lowerback upperback
    upperback thorax
    thorax lowerneck lclavicle rclavicle
    lowerneck upperneck
    upperneck head
    lclavicle lhumerus
    lhumerus lradius
    lradius lwrist
    lwrist lhand lthumb
    lhand lfingers
    rclavicle rhumerus
    rhumerus rradius
    rradius rwrist
    rwrist rhand rthumb
    rhand rfingers
  end

#!OML:ASF H:\Terrain\Patient Classification 1\Terrain2\Thursday\justin.ASF
:FULLY-SPECIFIED
:DEGREES
468
root 10.572 20.3628 -9.35453 -185.572 -5.28631 -172.388
lowerback 6.65309 -0.276014 2.68127
upperback 1.83487 -0.451167 4.78555
thorax -1.81156 -0.389647 3.48199
lowerneck -10.7295 0.147247 -9.84085
upperneck 40.2315 -6.64955 7.96614
head 16.9666 -5.18848 3.65776
rclavicle 1.31695e-015 1.98785e-014
rhumerus -32.6543 -11.3088 -77.5527
rradius 37.1539
rwrist -12.2472
rhand -23.3708 17.1267
rfingers 7.12502
rthumb 3.08502 -12.8308
lclavicle 1.31695e-015 1.98785e-014
lhumerus -41.3937 8.76356 83.3542
lradius 31.0065
lwrist -1.20821
lhand -22.9919 17.5571
lfingers 7.12502
lthumb 3.45089 47.509
rfemur 0.988812 -2.19515 33.6074
rtibia 28.4227
rfoot -19.1911 -9.98835
rtoes 10.3968
lfemur -16.7004 4.31524 3.3311
ltibia 119.002
lfoot 28.607 -20.797
ltoes 6.06469
469
root 10.5693 20.4246 -9.43638 -185.634 -5.44757 -172.167
lowerback 6.65352 -0.223856 2.94766
upperback 1.85664 -0.368933 4.76638
thorax -1.79357 -0.350651 3.30493
lowerneck -10.5765 0.0869575 -9.77767
upperneck 40.1736 -6.7989 8.0213
head 16.9178 -5.23418 3.64641
rclavicle 1.10325e-014 -1.98785e-015
rhumerus -32.7957 -10.579 -77.9507
rradius 37.6053
rwrist -11.29
rhand -23.1047 17.6296
rfingers 7.12502
rthumb 3.342 -12.324
lclavicle 1.10325e-014 -1.98785e-015
lhumerus -41.2011 8.54708 83.2513
lradius 32.0496
lwrist 0.364926
lhand -22.6387 17.7926
lfingers 7.12502
lthumb 3.79196 47.7386
rfemur 2.23378 -2.35079 33.7992
rtibia 26.3474
rfoot -18.4703 -9.78529
rtoes 11.3698
lfemur -17.8345 4.24758 3.402
ltibia 119.792
lfoot 28.2616 -21.0227
ltoes 3.84264
470
root 10.5676 20.4573 -9.50701 -185.743 -5.56479 -171.905
lowerback 6.67078 -0.169106 3.19601
upperback 1.93487 -0.295098 4.80521
thorax -1.72486 -0.319647 3.19916
lowerneck -10.4317 0.0297445 -9.70673
upperneck 40.0632 -6.83053 7.91378
head 16.8163 -5.23761 3.5807
rclavicle 1.09332e-015 -8.50798e-014
rhumerus -32.935 -9.77669 -78.3255
rradius 38.2532
rwrist -10.5733
rhand -22.5789 17.3856
rfingers 7.12502
rthumb 3.84976 -12.5594
lclavicle 1.09332e-015 -8.50798e-014
lhumerus -40.985 8.32132 83.2041
lradius 33.0667
lwrist 1.82799
lhand -22.4746 19.1116
lfingers 7.12502
lthumb 3.95046 49.0547
rfemur 3.68435 -2.43405 34.1125
rtibia 24.2478
rfoot -17.7534 -9.86069
rtoes 11.3511
lfemur -19.1411 4.30831 3.71829
ltibia 120.746
lfoot 27.6963 -21.8031
ltoes 2.71838
471
root 10.566 20.4912 -9.57233 -185.8 -5.61945 -171.424
lowerback 6.67476 -0.114745 3.79626
upperback 2.0304 -0.211481 4.86341
thorax -1.63005 -0.288284 2.91512
lowerneck -10.4218 -0.0906719 -9.90561
upperneck 39.8973 -6.9348 8.04057
head 16.7536 -5.27021 3.65874
rclavicle 2.43511e-015 -4.37326e-014
rhumerus -32.8664 -9.0161 -78.7612
rradius 38.8016
rwrist -10.0899
rhand -21.8734 16.5615
rfingers 7.12502
rthumb 4.53103 -13.3701
lclavicle 2.43511e-015 -4.37326e-014
lhumerus -40.7103 8.15439 83.0807
lradius 34.0176
lwrist 3.51207
lhand -22.3078 19.7483
lfingers 7.12502
lthumb 4.11157 49.6883
rfemur 5.03474 -2.5768 34.6395
rtibia 22.0329
rfoot -16.9737 -9.75932
rtoes 10.9888
lfemur -20.6536 4.47925 4.32075
ltibia 121.657
lfoot 27.3897 -22.7239
ltoes 3.48718
472
root 10.5571 20.4918 -9.62381 -185.865 -5.51829 -170.8
lowerback 6.73577 0.031802 4.67237
upperback 2.11412 0.0129067 4.90369
thorax -1.57762 -0.18827 2.44852
lowerneck -10.4285 -0.300803 -10.3653
upperneck 39.7108 -7.27495 8.53001
head 16.7522 -5.3993 3.90824
rclavicle -1.18277e-014 -2.0276e-014
rhumerus -32.7238 -8.47934 -79.0714
rradius 39.0827
rwrist -9.86994
rhand -20.9829 16.6654
rfingers 7.12502
rthumb 5.39085 -13.246
lclavicle -1.18277e-014 -2.0276e-014
lhumerus -40.2349 7.82925 82.9911
lradius 34.8322
lwrist 5.36843
lhand -21.7741 20.3371
lfingers 7.12502
lthumb 4.62687 50.2666
rfemur 6.55728 -2.81095 35.2607
rtibia 19.5964
rfoot -16.0854 -9.50328
rtoes 10.1802
lfemur -22.1603 4.858 5.22424
ltibia 122.746
lfoot 27.1794 -23.6501
ltoes 4.77461
473
root 10.5506 20.528 -9.69823 -185.97 -5.40426 -170.629
lowerback 6.79225 0.200565 5.01169
upperback 2.22265 0.24656 4.86724
thorax -1.49504 -0.0743979 2.20203
lowerneck -10.3779 -0.434495 -10.495
upperneck 39.6342 -7.4602 8.62093
head 16.7386 -5.47271 3.94295
rclavicle -2.06239e-014 2.90226e-014
rhumerus -32.6239 -7.88672 -79.2887
rradius 39.2611
rwrist -9.80296
rhand -20.1111 16.883
rfingers 7.12502
rthumb 6.23253 -13.0053
lclavicle -2.06239e-014 2.90226e-014
lhumerus -39.7003 7.61252 82.8754
lradius 35.6039
lwrist 6.96715
lhand -21.76 22.2494
lfingers 7.12502
lthumb 4.64053 52.1786
rfemur 8.11931 -2.79344 35.3717
rtibia 17.0354
rfoot -15.1269 -9.12542
rtoes 11.4842
lfemur -23.2314 5.12197 5.36482
ltibia 123.43
lfoot 26.968 -24.1301
ltoes 7.71517
474
root 10.5421 20.552 -9.77011 -186.028 -5.36196 -170.837
lowerback 6.87372 0.331921 4.97248
upperback 2.28448 0.432184 4.71433
thorax -1.47654 0.0248174 2.0498
lowerneck -10.2526 -0.49876 -10.3096
upperneck 39.5801 -7.52147 8.43611
head 16.6685 -5.48498 3.81583
rclavicle 6.53505e-015 5.76476e-014
rhumerus -32.6183 -7.04048 -79.6895
rradius 39.4592
rwrist -9.78638
rhand -19.7391 16.5224
rfingers 7.12502
rthumb 6.59172 -13.355
lclavicle 6.53505e-015 5.76476e-014
lhumerus -39.2776 7.35139 82.7643
lradius 36.371
lwrist 8.51831
lhand -22.3081 23.6488
lfingers 7.12502
lthumb 4.11129 53.5888
rfemur 9.7495 -2.95156 35.0582
rtibia 14.5906
rfoot -14.2681 -8.84443
rtoes 11.4986
lfemur -24.5558 5.28652 4.77676
ltibia 124.106
lfoot 26.0188 -24.7003
ltoes 9.03245
475
root 10.5314 20.5544 -9.82625 -186.053 -5.31799 -170.98
lowerback 7.08105 0.484087 5.06066
upperback 2.28389 0.668182 4.56111
thorax -1.58968 0.146609 1.82209
lowerneck -10.0354 -0.594198 -10.4119
upperneck 39.4359 -7.71207 8.62044
head 16.5804 -5.55309 3.8871
rclavicle -4.69629e-015 -3.81667e-014
rhumerus -32.6101 -6.04381 -80.1222
rradius 39.5568
rwrist -10.0437
rhand -19.8403 16.2399
rfingers 7.12502
rthumb 6.49394 -13.6406
lclavicle -4.69629e-015 -3.81667e-014
lhumerus -39.0165 6.87554 82.793
lradius 37.2801
lwrist 10.272
lhand -22.3001 23.0697
lfingers 7.12502
lthumb 4.11897 53.0096
rfemur 11.6745 -3.2228 34.8076
rtibia 11.6069
rfoot -13.1867 -8.54017
rtoes 10.9486
lfemur -26.1347 5.68305 4.30272
ltibia 124.902
lfoot 24.2542 -25.4678
ltoes 8.57339
476
root 10.5272 20.6126 -9.90773 -185.961 -5.20503 -171.119
lowerback 7.13279 0.65629 5.10816
upperback 2.28172 0.913964 4.45403
thorax -1.61719 0.273413 1.66368
lowerneck -9.98857 -0.654493 -10.6314
upperneck 39.4899 -7.8604 8.8017
head 16.6432 -5.63252 3.9865
rclavicle 3.95085e-015 -1.27222e-014
rhumerus -32.5662 -5.11366 -80.4314
rradius 39.674
rwrist -10.3158
rhand -19.8649 15.8199
rfingers 7.12502
rthumb 6.47027 -14.0612
lclavicle 3.95085e-015 -1.27222e-014
lhumerus -38.8146 6.61531 82.7573
lradius 38.223
lwrist 11.4979
lhand -21.8913 22.0507
lfingers 7.12502
lthumb 4.51374 51.9826
rfemur 13.1565 -3.21448 34.577
rtibia 8.57144
rfoot -11.869 -8.07195
rtoes 12.7692
lfemur -27.3871 6.25781 3.8026
ltibia 125.171
lfoot 22.3023 -25.9141
ltoes 8.88899
477
root 10.5166 20.5866 -9.96468 -185.935 -4.83298 -170.644
lowerback 7.01224 0.880895 5.58111
upperback 2.3905 1.19421 4.66787
thorax -1.42602 0.40075 1.60118
lowerneck -10.0248 -0.749512 -10.8139
upperneck 39.526 -7.88764 8.66696
head 16.6789 -5.677 3.95637
rclavicle -1.93815e-014 7.95139e-016
rhumerus -32.406 -4.25196 -80.4797
rradius 39.8911
rwrist -10.3035
rhand -19.4868 15.1732
rfingers 7.12502
rthumb 6.8352 -14.6965
lclavicle -1.93815e-014 7.95139e-016
lhumerus -38.3322 6.76896 82.7444
lradius 38.8792
lwrist 11.974
lhand -21.5078 21.3138
lfingers 7.12502
lthumb 4.88408 51.2375
rfemur 15.6733 -3.0549 35.14
rtibia 4.44494
rfoot -10.1238 -7.97149
rtoes 11.1548
lfemur -29.0108 7.4594 4.63894
ltibia 126.064
lfoot 19.7037 -26.6252
ltoes 8.62895
478
root 10.5139 20.6462 -10.0519 -185.883 -4.33032 -169.983
lowerback 6.88634 1.15211 6.26454
upperback 2.48712 1.53959 4.90474
thorax -1.23374 0.557926 1.44352
lowerneck -9.89482 -0.867248 -11.0306
upperneck 39.3575 -7.97881 8.71517
head 16.5838 -5.72282 4.00416
rclavicle 5.01931e-015 7.15625e-015
rhumerus -32.2017 -3.28282 -80.5457
rradius 39.9628
rwrist -10.003
rhand -19.42 15.2781
rfingers 7.12502
rthumb 6.89975 -14.5895
lclavicle 5.01931e-015 7.15625e-015
lhumerus -37.7913 6.94352 82.6338
lradius 39.4824
lwrist 11.9596
lhand -21.2092 21.6073
lfingers 7.12502
lthumb 5.17236 51.5242
rfemur 17.7617 -2.75195 35.7814
rtibia 7.15625e-014
rfoot -8.04171 -7.23731
rtoes 14.9495
lfemur -30.2534 8.76805 5.70571
ltibia 126.201
lfoot 17.5979 -26.3242
ltoes 10.3391
479
root 10.5052 20.6422 -10.1185 -185.753 -3.85158 -169.973
lowerback 6.95379 1.40397 6.6535
upperback 2.47418 1.92023 4.67734
thorax -1.25469 0.755341 0.962011
lowerneck -9.77521 -0.925477 -11.0975
upperneck 39.2799 -8.19054 9.02411
head 16.5683 -5.78563 4.12132
rclavicle 2.52953e-014 5.40694e-014
rhumerus -32.0783 -2.3597 -81.0603
rradius 39.9474
rwrist -9.96532
rhand -19.8172 15.6274
rfingers 7.12502
rthumb 6.51634 -14.2524
lclavicle 2.52953e-014 5.40694e-014
lhumerus -37.5194 6.7459 82.1804
lradius 40.323
lwrist 11.8641
lhand -21.4172 22.9854
lfingers 7.12502
lthumb 4.97151 52.9071
rfemur 18.0729 -2.42423 35.866
rtibia 1.59028e-015
rfoot -8.2643 -7.31586
rtoes 13.6667
lfemur -31.838 9.69787 5.52618
ltibia 126.567
lfoot 15.6208 -25.1797
ltoes 11.4461
480
root 10.4974 20.6376 -10.1847 -185.873 -3.45242 -169.784
lowerback 7.29882 1.62634 7.26479
upperback 2.50431 2.28479 4.51058
thorax -1.36891 0.934273 0.416412
lowerneck -9.70903 -1.00056 -11.0955
upperneck 39.2665 -8.36527 9.13848
head 16.581 -5.84398 4.14444
rclavicle -2.88486e-014 -5.12864e-014
rhumerus -31.9587 -1.69691 -81.4546
rradius 40.0017
rwrist -10.481
rhand -19.6113 15.1336
rfingers 7.12502
rthumb 6.71508 -14.74
lclavicle -2.88486e-014 -5.12864e-014
lhumerus -37.1829 6.3402 81.9507
lradius 41.0964
lwrist 12.1552
lhand -21.6772 23.0902
lfingers 7.12502
lthumb 4.72051 53.0176
rfemur 18.5814 -2.25645 36.1136
rtibia -6.83819e-014
rfoot -8.6704 -7.405
rtoes 13.5261
lfemur -33.1004 10.7524 5.49915
ltibia 126.765
lfoot 12.1389 -24.3511
ltoes 5.08505
